/* XPM */
static char *d9ad150ab5d046d4f2320a1e1a445bcb[] = {
/* columns rows colors chars-per-pixel */
"32 32 178 2 ",
"   c #0E394F",
".  c #10334E",
"X  c #013253",
"o  c #0E3955",
"O  c #00365A",
"+  c #003A5E",
"@  c #0A3C5E",
"#  c #003E62",
"$  c #0C3E61",
"%  c #0E465C",
"&  c #11425F",
"*  c #004266",
"=  c #0B4163",
"-  c #034B62",
";  c #00416A",
":  c #0B456B",
">  c #024B6A",
",  c #154364",
"<  c #1A4868",
"1  c #00506F",
"2  c #1D516A",
"3  c #004770",
"4  c #004972",
"5  c #025574",
"6  c #055974",
"7  c #204E66",
"8  c #3F596E",
"9  c #2B5F71",
"0  c #365871",
"q  c #3E5D72",
"w  c #046077",
"e  c #02637F",
"r  c #296072",
"t  c #326273",
"y  c #386279",
"u  c #495B6B",
"i  c #52626F",
"p  c #446376",
"a  c #496477",
"s  c #43647A",
"d  c #416A7F",
"f  c #5B6A76",
"g  c #556A7C",
"h  c #5F6D79",
"j  c #606E79",
"k  c #64727D",
"l  c #026B83",
"z  c #0A6984",
"x  c #1C6681",
"c  c #0A7187",
"v  c #07718A",
"b  c #0C758E",
"n  c #087C93",
"m  c #127D94",
"M  c #1B7B93",
"N  c #2F728A",
"B  c #4B6F86",
"V  c #596E80",
"C  c #567383",
"Z  c #52758F",
"A  c #5F7889",
"S  c #597B91",
"D  c #647985",
"F  c #6D7B85",
"G  c #657C8D",
"H  c #717F89",
"J  c #078197",
"K  c #0D8196",
"L  c #0F849A",
"P  c #0F8B9F",
"I  c #13879E",
"U  c #15899E",
"Y  c #128BA0",
"T  c #188FA2",
"R  c #1691A5",
"E  c #1297A9",
"W  c #1299AB",
"Q  c #1C9BAD",
"!  c #2195A9",
"~  c #2B97A9",
"^  c #2B9DAC",
"/  c #1EA5B5",
"(  c #1FA8B7",
")  c #16AABA",
"_  c #1BACBA",
"`  c #1DB1BF",
"'  c #2EAEBC",
"]  c #5C8997",
"[  c #75838C",
"{  c #648492",
"}  c #6E8795",
"|  c #7E8790",
" . c #7E8D9B",
".. c #7193A7",
"X. c #58B1BF",
"o. c #63A6A9",
"O. c #70A5A4",
"+. c #7FA0AF",
"@. c #79B2AF",
"#. c #65B0BF",
"$. c #24B6C3",
"%. c #24BAC5",
"&. c #2ABDC7",
"*. c #35B5C3",
"=. c #43B9C6",
"-. c #57BEC9",
";. c #62B5C2",
":. c #35C2CB",
">. c #3FC7CE",
",. c #47C8CE",
"<. c #42CAD1",
"1. c #62C3C5",
"2. c #6CC1CC",
"3. c #65D6D7",
"4. c #72D3D2",
"5. c #8B8E93",
"6. c #808B9A",
"7. c #8E949C",
"8. c #8D9AA6",
"9. c #8B9CAD",
"0. c #9399A1",
"q. c #989EA5",
"w. c #919CA8",
"e. c #9FA0A7",
"r. c #9DA3AB",
"t. c #87A6B0",
"y. c #89AEB8",
"u. c #A0A1A7",
"i. c #A3A6AC",
"p. c #A9A9AF",
"a. c #A3A9B1",
"s. c #AAABB1",
"d. c #B0AFB5",
"f. c #AFB0B6",
"g. c #ABB1BA",
"h. c #B5B6BB",
"j. c #B7B8BE",
"k. c #BABABE",
"l. c #AEB5C0",
"z. c #B4BEC7",
"x. c #BCBDC2",
"c. c #93C3CA",
"v. c #80D8DE",
"b. c #A0C0CB",
"n. c #ABC3C8",
"m. c #BDC1C6",
"M. c #BCC2CB",
"N. c #A4D8DF",
"B. c #ACDBDC",
"V. c #B8D9DF",
"C. c #B9DBE2",
"Z. c #AEE7E9",
"A. c #C1C1C5",
"S. c #C4C6CB",
"D. c #C7C8CC",
"F. c #CBCACD",
"G. c #CDCDD2",
"H. c #CED0D6",
"J. c #D3D2D6",
"K. c #D6D6DA",
"L. c #D7D8DB",
"P. c #DADADC",
"I. c #E0DEDF",
"U. c #DEDEE1",
"Y. c #CEE9ED",
"T. c #DFEAEF",
"R. c #E4E3E4",
"E. c #E8E5E5",
"W. c #E4E5E8",
"Q. c #E6ECEE",
"!. c #EFECED",
"~. c #E4EAF0",
"^. c #EEEFF0",
"/. c #F4F2F3",
"(. c #F9F5F5",
"). c #FAF7F9",
"_. c #FEFEFE",
"`. c None",
/* pixels */
"`.`.`.`.`.`.`.`.`.`.`.`.`.`.`.`.`.`.`.`.`.`.`.`.`.`.`.`.`.`.`.`.",
"`.`.`.`.`.`.`.`.`.`.`.`.`.`.`.`.`.`.`.`.`.`.`.`.`.`.`.`.`.`.`.`.",
"`.`.`.`.`.`.`.`.`.`.`.`.`.`.`.`.`.`.`.`.`.`.`.`.`.`.`.`.`.`.`.`.",
"`.`.`.`.`.`.`.`.`.`.`.`.`.`.`.`.`.`.`.`.`.`.`.`.`.`.`.`.`.`.`.`.",
"`.`.`.`.`.`.`.`.`.`.`.`.`.`.`.`.`.`.`.`.`.`.`.`.`.`.`.`.`.`.`.`.",
"`.`.`.`.`.`.`.`.`.`.`.`.`.`.`.h j `.`.`.`.`.`.`.`.`.`.`.`.`.`.`.",
"`.`.`.`.`.`.`.`.`.`.`.j a.S.G.H.J.J.A.q.j `.`.`.`.`.`.`.`.`.`.`.",
"`.`.`.`.`.`.`.`.`.`.a.g.6.V p q s G g.L.A.q.`.`.`.`.`.`.`.`.`.`.",
"`.`.`.`.`.`.`.`.`.w.u   - w l l z 6 % 6.P.A.f.`.`.`.`.`.`.`.`.`.",
"`.`.`.`.`.`.`.`.G   - b I ! ;.X.R U b - g.K.x.s.`.`.`.`.`.`.`.`.",
"`.`.`.`.`.`.`.p 7 x b I W -._._.2.W U l { R.D.x.0.`.`.`.`.`.`.`.",
"`.`.`.`.`.`.`. .z.G c Q ) v._._.N.) Q n ] !.J.m.h.f `.`.`.`.`.`.",
"`.`.`.`.`.`.| k.G.p m / %.Z._._.c.&.( J y.(.P.S.j.7.`.`.`.`.`.`.",
"`.`.`.`.`.`.i.j.G.t Y _ :.B.F.u.o.<.) ~ Q./.U.G.j.i.`.`.`.`.`.`.",
"`.`.`.`.`.`.p.k.F.9 Y _ :.1.O.@.4.:.' Y._./.R.G.j.p.i `.`.`.`.`.",
"`.`.`.`.`.f p.k.G.9 L Q $.>.3.3.,.%.^ n._./.U.F.x.h.k `.`.`.`.`.",
"`.`.`.`.`.h p.h.J.9 b U / *.=.*.` / R l t.).P.F.m.G.[ `.`.`.`.`.",
"`.`.`.`.`.`.p.p.P.p e m I C.).~.#.P m c > m.P.J.G.F.j `.`.`.`.`.",
"`.`.`.`.`.`.s.u.P.D > z v V._._.T.M z 6 # G I.L.U.j.`.`.`.`.`.`.",
"`.`.`.`.`.`.u.i.S.e.O 5 5 b._._.).N 1 > + a I.P.J.i.`.`.`.`.`.`.",
"`.`.`.`.`.`.`.0.f.D.  > # +./.!.R.2 * $ O g I.S.J.F `.`.`.`.`.`.",
"`.`.`.`.`.`.`.q B ..< @ O S I.R.5.X $ $ X r.G.A.x.`.`.`.`.`.`.`.",
"`.`.`.`.`.`.`.`.Z = # : $ , 0 8 . @ : # p E.f.x.`.`.`.`.`.`.`.`.",
"`.`.`.`.`.`.`.`.`.9.p & # > ; ; 3 3 * C !.F.j.`.`.`.`.`.`.`.`.`.",
"`.`.`.`.`.`.`.`.`.`.z.M.8.G s y d } S._.L.s.`.`.`.`.`.`.`.`.`.`.",
"`.`.`.`.`.`.`.`.`.`.`.[ M.W.!./.)._.E.g.F `.`.`.`.`.`.`.`.`.`.`.",
"`.`.`.`.`.`.`.`.`.`.`.`.`.`.`.[ [ `.`.`.`.`.`.`.`.`.`.`.`.`.`.`.",
"`.`.`.`.`.`.`.`.`.`.`.`.`.`.`.`.`.`.`.`.`.`.`.`.`.`.`.`.`.`.`.`.",
"`.`.`.`.`.`.`.`.`.`.`.`.`.`.`.`.`.`.`.`.`.`.`.`.`.`.`.`.`.`.`.`.",
"`.`.`.`.`.`.`.`.`.`.`.`.`.`.`.`.`.`.`.`.`.`.`.`.`.`.`.`.`.`.`.`.",
"`.`.`.`.`.`.`.`.`.`.`.`.`.`.`.`.`.`.`.`.`.`.`.`.`.`.`.`.`.`.`.`.",
"`.`.`.`.`.`.`.`.`.`.`.`.`.`.`.`.`.`.`.`.`.`.`.`.`.`.`.`.`.`.`.`."
};
