/* XPM */
static char *_7a08aa7fcdf40cca98315cce1664955[] = {
/* columns rows colors chars-per-pixel */
"64 64 256 2 ",
"   c #000F1B",
".  c #01111D",
"X  c #061B29",
"o  c #121D2B",
"O  c #001E37",
"+  c #0A2437",
"@  c #02263C",
"#  c #0C2C3C",
"$  c #022335",
"%  c #142B3A",
"&  c #1C2D3D",
"*  c #142636",
"=  c #1D222A",
"-  c #25313C",
";  c #022641",
":  c #012A43",
">  c #002D4C",
",  c #0E2F44",
"<  c #162F40",
"1  c #003145",
"2  c #01324C",
"3  c #0A3443",
"4  c #1A374A",
"5  c #012F51",
"6  c #023355",
"7  c #013A5C",
"8  c #0C3C5E",
"9  c #073A55",
"0  c #163F50",
"q  c #202E40",
"w  c #2D3C4B",
"e  c #0C3E61",
"r  c #003F63",
"t  c #00425B",
"y  c #0B435D",
"u  c #064559",
"i  c #2D445A",
"p  c #364652",
"a  c #3B4957",
"s  c #034365",
"d  c #0B4164",
"f  c #014669",
"g  c #0C4569",
"h  c #024B6C",
"j  c #0C496E",
"k  c #024C62",
"l  c #03516E",
"z  c #05596F",
"x  c #065065",
"c  c #0B4D73",
"v  c #044F75",
"b  c #045472",
"n  c #065975",
"m  c #095A72",
"M  c #05537C",
"N  c #0A567E",
"B  c #035E7B",
"V  c #095D7A",
"C  c #185674",
"Z  c #304E61",
"A  c #295776",
"S  c #385F71",
"D  c #2D5069",
"F  c #05627A",
"G  c #09627C",
"H  c #176579",
"J  c #49545F",
"K  c #4C535A",
"L  c #4C5762",
"P  c #4B606A",
"I  c #5B636E",
"U  c #4C657A",
"Y  c #596A79",
"T  c #5C707E",
"R  c #5A7C7C",
"E  c #4A7275",
"W  c #666E78",
"Q  c #666B74",
"!  c #65737E",
"~  c #6C7078",
"^  c #095982",
"/  c #075C86",
"(  c #0A6582",
")  c #0C6A85",
"_  c #076D87",
"`  c #186E84",
"'  c #0E728C",
"]  c #05778F",
"[  c #10758D",
"{  c #0F7690",
"}  c #0C7D93",
"|  c #127C93",
" . c #107790",
".. c #2C6A87",
"X. c #2E758E",
"o. c #556E84",
"O. c #5B768D",
"+. c #537089",
"@. c #5D7A94",
"#. c #487486",
"$. c #6D7983",
"%. c #667482",
"&. c #727E89",
"*. c #767C83",
"=. c #647C93",
"-. c #637F9B",
";. c #0B869B",
":. c #148197",
">. c #15859A",
",. c #15899E",
"<. c #0D8DA1",
"1. c #168BA0",
"2. c #188EA1",
"3. c #0E91A3",
"4. c #1992A5",
"5. c #139CAD",
"6. c #1C9AAC",
"7. c #1795A7",
"8. c #1EA3B3",
"9. c #18A9B8",
"0. c #1CB1BE",
"q. c #20A6B6",
"w. c #22ADBB",
"e. c #2DA9B9",
"r. c #39A8B9",
"t. c #22B1BE",
"y. c #458294",
"u. c #448398",
"i. c #508298",
"p. c #5B9494",
"a. c #77838D",
"s. c #7A848E",
"d. c #7D8085",
"f. c #7C8C9B",
"g. c #7E8993",
"h. c #728C9C",
"j. c #5A97A5",
"k. c #4F9EB2",
"l. c #4194A9",
"z. c #718AA2",
"x. c #7A93AA",
"c. c #7F9AB2",
"v. c #6B87A0",
"b. c #47AABA",
"n. c #56AAAF",
"m. c #66ABBA",
"M. c #1DB5C1",
"N. c #23B5C2",
"B. c #23BAC6",
"V. c #29BCC7",
"C. c #2CBEC9",
"Z. c #30BFC9",
"A. c #56B8C4",
"S. c #62BECA",
"D. c #77BCC8",
"F. c #2DC2CB",
"G. c #32C1CA",
"H. c #3DC4CB",
"J. c #43C5CC",
"K. c #4FC9CE",
"L. c #4AC7CD",
"P. c #55C9CD",
"I. c #5CCBCE",
"U. c #44CAD0",
"Y. c #55CBD0",
"T. c #61C2C3",
"R. c #6BCFD0",
"E. c #79C6D0",
"W. c #6AD1D2",
"Q. c #75D3D3",
"!. c #76DAD9",
"~. c #87888E",
"^. c #838C94",
"/. c #8C8D93",
"(. c #898F98",
"). c #8C939C",
"_. c #939499",
"`. c #8597A9",
"'. c #949BA3",
"]. c #9B9EA5",
"[. c #999FA8",
"{. c #829BB1",
"}. c #9EA0A7",
"|. c #9CA3AB",
" X c #96A4AB",
".X c #8DA2B5",
"XX c #97A7B5",
"oX c #82B8B4",
"OX c #A3A5AB",
"+X c #A6A8AE",
"@X c #A8A9AF",
"#X c #A5A4A9",
"$X c #A6ACB2",
"%X c #ABADB3",
"&X c #B0AFB0",
"*X c #AFB0B5",
"=X c #ABB3BD",
"-X c #B2B2B6",
";X c #B3B5BA",
":X c #B6B9BE",
">X c #B9BABE",
",X c #9AB0C3",
"<X c #A4B4C5",
"1X c #A9BAC7",
"2X c #BCBDC1",
"3X c #B5BDC7",
"4X c #8CDCDA",
"5X c #81DBDB",
"6X c #9DD0D8",
"7X c #85C6D0",
"8X c #BFC0C5",
"9X c #BAC2C9",
"0X c #B4C4D3",
"qX c #ADC5CF",
"wX c #8FE3DE",
"eX c #9EE6DF",
"rX c #9EDDE3",
"tX c #AFD9E0",
"yX c #B8DEE3",
"uX c #A0E7E0",
"iX c #C2C2C6",
"pX c #C5C6CA",
"aX c #C7C8CD",
"sX c #CACBCE",
"dX c #C8C7CB",
"fX c #C5CAD2",
"gX c #CDCED2",
"hX c #C1CEDA",
"jX c #CFD0D3",
"kX c #CCD4DB",
"lX c #D2D2D5",
"zX c #D5D6D9",
"xX c #D6D9DC",
"cX c #DBDBDD",
"vX c #DAD7D7",
"bX c #CCD7E1",
"nX c #D4DBE3",
"mX c #DDDEE1",
"MX c #DDE7ED",
"NX c #C2ECF0",
"BX c #E3E3E5",
"VX c #E4E5E9",
"CX c #E8E7ED",
"ZX c #E4E8EC",
"AX c #EBEBED",
"SX c #EBE8E7",
"DX c #F3F0EF",
"FX c #EDEEF1",
"GX c #E5ECF1",
"HX c #EFF5F9",
"JX c #E8F2F5",
"KX c #F4F4F5",
"LX c #F5FAFC",
"PX c #FEFEFE",
"IX c #F8F6F9",
"UX c None",
/* pixels */
"UXUXUXUXUXUXUXUXUXUXUXUXUXUXUXUXUXUXUXUXUXUXUXUXUXUXUXUXUXUXUXUXUXUXUXUXUXUXUXUXUXUXUXUXUXUXUXUXUXUXUXUXUXUXUXUXUXUXUXUXUXUXUXUX",
"UXUXUXUXUXUXUXUXUXUXUXUXUXUXUXUXUXUXUXUXUXUXUXUXUXUXUXUXUXUXUXUXUXUXUXUXUXUXUXUXUXUXUXUXUXUXUXUXUXUXUXUXUXUXUXUXUXUXUXUXUXUXUXUX",
"UXUXUXUXUXUXUXUXUXUXUXUXUXUXUXUXUXUXUXUXUXUXUXUXUXUXUXUXUXUXUXUXUXUXUXUXUXUXUXUXUXUXUXUXUXUXUXUXUXUXUXUXUXUXUXUXUXUXUXUXUXUXUXUX",
"UXUXUXUXUXUXUXUXUXUXUXUXUXUXUXUXUXUXUXUXUXUXUXUXUXUXUXUXUXUXUXUXUXUXUXUXUXUXUXUXUXUXUXUXUXUXUXUXUXUXUXUXUXUXUXUXUXUXUXUXUXUXUXUX",
"UXUXUXUXUXUXUXUXUXUXUXUXUXUXUXUXUXUXUXUXUXUXUXUXUXUXUXUXUXUXUXUXUXUXUXUXUXUXUXUXUXUXUXUXUXUXUXUXUXUXUXUXUXUXUXUXUXUXUXUXUXUXUXUX",
"UXUXUXUXUXUXUXUXUXUXUXUXUXUXUXUXUXUXUXUXUXUXUXUXUXUXUXUXUXUXUXUXUXUXUXUXUXUXUXUXUXUXUXUXUXUXUXUXUXUXUXUXUXUXUXUXUXUXUXUXUXUXUXUX",
"UXUXUXUXUXUXUXUXUXUXUXUXUXUXUXUXUXUXUXUXUXUXUXUXUXUXUXUXUXUXUXUXUXUXUXUXUXUXUXUXUXUXUXUXUXUXUXUXUXUXUXUXUXUXUXUXUXUXUXUXUXUXUXUX",
"UXUXUXUXUXUXUXUXUXUXUXUXUXUXUXUXUXUXUXUXUXUXUXUXUXUXUXUXUXUXUXUXUXUXUXUXUXUXUXUXUXUXUXUXUXUXUXUXUXUXUXUXUXUXUXUXUXUXUXUXUXUXUXUX",
"UXUXUXUXUXUXUXUXUXUXUXUXUXUXUXUXUXUXUXUXUXUXUXUXUXUXUXUXUXUXUXUXUXUXUXUXUXUXUXUXUXUXUXUXUXUXUXUXUXUXUXUXUXUXUXUXUXUXUXUXUXUXUXUX",
"UXUXUXUXUXUXUXUXUXUXUXUXUXUXUXUXUXUXUXUXUXUXUXUXUXUXUXUXUXUXUXUXUXUXUXUXUXUXUXUXUXUXUXUXUXUXUXUXUXUXUXUXUXUXUXUXUXUXUXUXUXUXUXUX",
"UXUXUXUXUXUXUXUXUXUXUXUXUXUXUXUXUXUXUXUXUXUXUXUXUXUXUXUXUXUXUXUXUXUXUXUXUXUXUXUXUXUXUXUXUXUXUXUXUXUXUXUXUXUXUXUXUXUXUXUXUXUXUXUX",
"UXUXUXUXUXUXUXUXUXUXUXUXUXUXUXUXUXUXUXUXUXUXUXUXUXUXUXY a.(.'.}.|.'.).s.Y UXUXUXUXUXUXUXUXUXUXUXUXUXUXUXUXUXUXUXUXUXUXUXUXUXUXUX",
"UXUXUXUXUXUXUXUXUXUXUXUXUXUXUXUXUXUXUXUXUXUXUXUX! '.&X:X>X2XiX8X2X>X2X:X2X*X].$.UXUXUXUXUXUXUXUXUXUXUXUXUXUXUXUXUXUXUXUXUXUXUXUX",
"UXUXUXUXUXUXUXUXUXUXUXUXUXUXUXUXUXUXUXUXUXUX&.@X2XdXjXzXxXnXxXxXmXmXmXzX8X:X>X>X&Xg.UXUXUXUXUXUXUXUXUXUXUXUXUXUXUXUXUXUXUXUXUXUX",
"UXUXUXUXUXUXUXUXUXUXUXUXUXUXUXUXUXUXUXUXY @XpXjXgX0X,X{.z.=.O.O.=.z..X0XnXmXpX2X:X:X@X! UXUXUXUXUXUXUXUXUXUXUXUXUXUXUXUXUXUXUXUX",
"UXUXUXUXUXUXUXUXUXUXUXUXUXUXUXUXUXUXUX^.pXfX<Xx.U i q * * # 3 # # % 4 a =.1XVXjX2X2X:X;X(.UXUXUXUXUXUXUXUXUXUXUXUXUXUXUXUXUXUXUX",
"UXUXUXUXUXUXUXUXUXUXUXUXUXUXUXUXUXUX|.fXXXo.& X X 2 x F ) [ [ { ' ( z 9 # w x.MXlX8X2X;X;X}.UXUXUXUXUXUXUXUXUXUXUXUXUXUXUXUXUXUX",
"UXUXUXUXUXUXUXUXUXUXUXUXUXUXUXUXUX%X<Xo.o   : z [ | :.:.:.>.>.:.| | } { ) t * f.GXgXiX2X;X-XOXUXUXUXUXUXUXUXUXUXUXUXUXUXUXUXUXUX",
"UXUXUXUXUXUXUXUXUXUXUXUXUXUXUXUX Xx.i   1 V ' [ | | >.:.;.<.<.<.,.,.:.| [ ' z % =XZXsXpX2X;X*X}.UXUXUXUXUXUXUXUXUXUXUXUXUXUXUXUX",
"UXUXUXUXUXUXUXUXUXUXUXUXUXUXUXf.v.UX@ l ) ) [ | >.2.3.e.6XtXyXD.5.4.2.,.:.[ ' k L ZXxXfX8X2X*X*X(.UXUXUXUXUXUXUXUXUXUXUXUXUXUXUX",
"UXUXUXUXUXUXUXUXUXUXUXUXUXUXY @.UX2 h V ) [ | ,.4.6.5.E.PXPXPXPXE.5.6.4.2.:.[ _ 0 fXBXjXdXiX>X*X*X! UXUXUXUXUXUXUXUXUXUXUXUXUXUX",
"UXUXUXUXUXUXUXUXUXUXUXUXUXUX@.UXy ..i.` ) | >.4.6.8.9.rXPXPXPXPXZXe.8.6.4.,.|  .k %XAXkXjXdX8X;X@XOXUXUXUXUXUXUXUXUXUXUXUXUXUXUX",
"UXUXUXUXUXUXUXUXUXUXUXUXUXUX+.T |.jX<XZ G >.2.6.8.t.M.NXPXPXPXPXHXA.0.q.6.4.>.| l |.KXcXlXfXiX>X*X*Xs.UXUXUXUXUXUXUXUXUXUXUXUXUX",
"UXUXUXUXUXUXUXUXUXUXUXUXUXUX[.2XiXjX.X& [ 1.4.8.w.B.G.JXPXPXPXPXKXS.B.t.8.6.,.>.m ;XKXBXxXgXpX2X-X@X}.UXUXUXUXUXUXUXUXUXUXUXUXUX",
"UXUXUXUXUXUXUXUXUXUXUXUXUXOX*X;XiXkXf.3 >.2.6.q.N.C.Y.LXPXPXPXPXVXA.F.N.w.6.4.>.H lXKXBXcXlXsX8X:X%X#X$.UXUXUXUXUXUXUXUXUXUXUXUX",
"UXUXUXUXUXUXUXUXUXUXUXUX^.@X*X2XpXkX%.9 ,.4.6.w.V.G.Q.PXPXPXPXPX3Xn.U.V.w.8.7.;.y.KXDXSXmXxXsXiX>X=X#X'.UXUXUXUXUXUXUXUXUXUXUXUX",
"UXUXUXUXUXUXUXUXUXUXUXUX}.+X*X>XsXbXI k 1.4.8.w.V.J.4XPXPXPXPXmXL T.K.G.0.8.4.;.qXPXKXAXBXxXgXpX2X*X#XOXUXUXUXUXUXUXUXUXUXUXUXUX",
"UXUXUXUXUXUXUXUXUXUXUXUX#X#X-X>XjXbXJ z 2.4.8.w.V.J.5X1X~./.~ - p.!.L.G.N.8.<.m.PXPXKXAXBXxXjXpX2X*X#X#X! UXUXUXUXUXUXUXUXUXUXUX",
"UXUXUXUXUXUXUXUXUXUXUX$.#X#X=X>XlXbXa F ,.4.8.w.V.J.W.n.E R R oX4XR.L.V.t.5.b.HXPXPXKXAXVXcXjXaX2X-X+XOXg.UXUXUXUXUXUXUXUXUXUXUX",
"UXUXUXUXUXUXUXUXUXUXUX^.OX@X-X>XlXnXp G ,.4.8.q.B.H.Y.Q.4XeXeX4XQ.I.J.F.9.T.LXPXPXPXKXAXBXxXjXaX2X-X+XOX).UXUXUXUXUXUXUXUXUXUXUX",
"UXUXUXUXUXUXUXUXUXUXUX).OX#X-X>XxXnXp F :.2.6.q.t.F.J.I.R.Q.Q.R.I.L.G.t.9.j.cXPXPXPXIXFXBXxXjXaX2X;X%X+X'.UXUXUXUXUXUXUXUXUXUXUX",
"UXUXUXUXUXUXUXUXUXUXUX'.].OX=X:XxXnXp F | ,.4.8.w.t.F.H.K.P.I.P.J.G.V.w.8.7.H XXPXPXKXAXBXxXjXaX2X2X*X:X@XUXUXUXUXUXUXUXUXUXUXUX",
"UXUXUXUXUXUXUXUXUXUXUX].}.}.*X;XlXZXa z | :.2.4.q.w.N.B.F.G.G.G.V.N.t.q.6.4.>.F f.PXKXZXmXvXgXpX8X8X:XgX;XUXUXUXUXUXUXUXUXUXUXUX",
"UXUXUXUXUXUXUXUXUXUXUX'.#X}.%X-XgXJXJ h ' | >.2.4.8.e.b.b.r.r.w.0.w.6.6.4.,. .' l [.PXBXmXzXgXaXaX8X2XmX:XUXUXUXUXUXUXUXUXUXUXUX",
"UXUXUXUXUXUXUXUXUXUXUX'.@X].@X=XsXHXI 9 ) ' | >.2.3.7XIXFXAXVX0Xk.6.6.4.>.:.[ ) V y jXAXcXlXgXgXgXaX2XgX$XUXUXUXUXUXUXUXUXUXUXUX",
"UXUXUXUXUXUXUXUXUXUXUX^.&X].OX*XiXLX~.2 G ( ' | >.;.7XPXPXPXPXPXBXl.<.>.| [ ) G V t T KXzXgXgXgXvXlX:X8X).UXUXUXUXUXUXUXUXUXUXUX",
"UXUXUXUXUXUXUXUXUXUXUX$.;X].].@X:XHX#X@ B V ) ' { ] D.PXPXPXPXPXPXqX} { [ ) G V l f 9 vXxXjXgXxXVXlX;X>Xa.UXUXUXUXUXUXUXUXUXUXUX",
"UXUXUXUXUXUXUXUXUXUXUXUX:XOX].#X&XAXsX$ l n V ( ) _ m.PXPXPXPXPXPXJXX._ ( F V l f f > &XAXsXjXBXDXgX;X:XUXUXUXUXUXUXUXUXUXUXUXUX",
"UXUXUXUXUXUXUXUXUXUXUXUX%X*X].].#XxXKX- s h n V G B j.PXLXPXPXPXPXPXu.B V m h f f d > ^.KXpXjXZXVX8X;X%XUXUXUXUXUXUXUXUXUXUXUXUX",
"UXUXUXUXUXUXUXUXUXUXUXUXg.2X#X].}.iXPXK > f h h n v y.KXKXKXKXIXKXPX#.l l h f d d d > *.PXpXjXmXgX8X8Xg.UXUXUXUXUXUXUXUXUXUXUXUX",
"UXUXUXUXUXUXUXUXUXUXUXUXUX'.;XOX].+XPX_.O f s f h h ..BXAXAXAXDXFXDXS f f f s d e e > ^.PX8XaXsXpXiX8XUXUXUXUXUXUXUXUXUXUXUXUXUX",
"UXUXUXUXUXUXUXUXUXUXUXUXUXUX%.|.@X].BXvX+ e d d s s C xXBXBXBXSXAXvX0 s s e e e e e @ &XIX2X2XpXcXsX'.UXUXUXUXUXUXUXUXUXUXUXUXUX",
"UXUXUXUXUXUXUXUXUXUXUXUXUXUXUXo.O.f.>XGXD 7 8 d s r g 9XcXcXcXcXFX/.$ s e e e 8 e e < SXVX%X-XjXmXpXUXUXUXUXUXUXUXUXUXUXUXUXUXUX",
"UXUXUXUXUXUXUXUXUXUXUXUXUXUXUXv.UXl ..A 7 8 8 8 e e 7 XXmXcXmXBX>X= 6 e e 8 8 e g 5 ~ PXpXOX;XaXjXg.UXUXUXUXUXUXUXUXUXUXUXUXUXUX",
"UXUXUXUXUXUXUXUXUXUXUXUXUXUXUXO.=.UXs M c d e e e e 8 D U %.&.W = : g 8 8 e e c h q SXLX@X#X;XpX$XUXUXUXUXUXUXUXUXUXUXUXUXUXUXUX",
"UXUXUXUXUXUXUXUXUXUXUXUXUXUXUXUXz.v.S : v ^ c g d e e 8 6 6 5 5 8 g e d g j N M + :XPXfX|.*X2X2XUXUXUXUXUXUXUXUXUXUXUXUXUXUXUXUX",
"UXUXUXUXUXUXUXUXUXUXUXUXUXUXUXUXUX.Xc.o.& ; f ^ N c j g g g g g g g c c N / f + ;XPXCX#X&X2X2XUXUXUXUXUXUXUXUXUXUXUXUXUXUXUXUXUX",
"UXUXUXUXUXUXUXUXUXUXUXUXUXUXUXUXUXUX1X<X`.Y w + 5 f M ^ ^ ^ N N ^ ^ / / h ; K vXPXFX;X&X2X2XUXUXUXUXUXUXUXUXUXUXUXUXUXUXUXUXUXUX",
"UXUXUXUXUXUXUXUXUXUXUXUXUXUXUXUXUXUXUX:XbX0X<X`.W p < : > 7 r s s 7 > , L -XPXPXAX:X;XsX%XUXUXUXUXUXUXUXUXUXUXUXUXUXUXUXUXUXUXUX",
"UXUXUXUXUXUXUXUXUXUXUXUXUXUXUXUXUXUXUXUXg.cXZXbXkXhX9XOX^.*.Q Q W ~.&XSXPXPXPXxX:XiXpX^.UXUXUXUXUXUXUXUXUXUXUXUXUXUXUXUXUXUXUXUX",
"UXUXUXUXUXUXUXUXUXUXUXUXUXUXUXUXUXUXUXUXUXUX[.xXAXZXMXGXJXHXLXPXPXPXPXPXIXcXpXiXpX}.UXUXUXUXUXUXUXUXUXUXUXUXUXUXUXUXUXUXUXUXUXUX",
"UXUXUXUXUXUXUXUXUXUXUXUXUXUXUXUXUXUXUXUXUXUXUXUX^.:XjXmXBXBXVXZXAXBXmXlXsXdX3X).UXUXUXUXUXUXUXUXUXUXUXUXUXUXUXUXUXUXUXUXUXUXUXUX",
"UXUXUXUXUXUXUXUXUXUXUXUXUXUXUXUXUXUXUXUXUXUXUXUXUXUXUX&.'.$X;X:X:X;X$X'.s.UXUXUXUXUXUXUXUXUXUXUXUXUXUXUXUXUXUXUXUXUXUXUXUXUXUXUX",
"UXUXUXUXUXUXUXUXUXUXUXUXUXUXUXUXUXUXUXUXUXUXUXUXUXUXUXUXUXUXUXUXUXUXUXUXUXUXUXUXUXUXUXUXUXUXUXUXUXUXUXUXUXUXUXUXUXUXUXUXUXUXUXUX",
"UXUXUXUXUXUXUXUXUXUXUXUXUXUXUXUXUXUXUXUXUXUXUXUXUXUXUXUXUXUXUXUXUXUXUXUXUXUXUXUXUXUXUXUXUXUXUXUXUXUXUXUXUXUXUXUXUXUXUXUXUXUXUXUX",
"UXUXUXUXUXUXUXUXUXUXUXUXUXUXUXUXUXUXUXUXUXUXUXUXUXUXUXUXUXUXUXUXUXUXUXUXUXUXUXUXUXUXUXUXUXUXUXUXUXUXUXUXUXUXUXUXUXUXUXUXUXUXUXUX",
"UXUXUXUXUXUXUXUXUXUXUXUXUXUXUXUXUXUXUXUXUXUXUXUXUXUXUXUXUXUXUXUXUXUXUXUXUXUXUXUXUXUXUXUXUXUXUXUXUXUXUXUXUXUXUXUXUXUXUXUXUXUXUXUX",
"UXUXUXUXUXUXUXUXUXUXUXUXUXUXUXUXUXUXUXUXUXUXUXUXUXUXUXUXUXUXUXUXUXUXUXUXUXUXUXUXUXUXUXUXUXUXUXUXUXUXUXUXUXUXUXUXUXUXUXUXUXUXUXUX",
"UXUXUXUXUXUXUXUXUXUXUXUXUXUXUXUXUXUXUXUXUXUXUXUXUXUXUXUXUXUXUXUXUXUXUXUXUXUXUXUXUXUXUXUXUXUXUXUXUXUXUXUXUXUXUXUXUXUXUXUXUXUXUXUX",
"UXUXUXUXUXUXUXUXUXUXUXUXUXUXUXUXUXUXUXUXUXUXUXUXUXUXUXUXUXUXUXUXUXUXUXUXUXUXUXUXUXUXUXUXUXUXUXUXUXUXUXUXUXUXUXUXUXUXUXUXUXUXUXUX",
"UXUXUXUXUXUXUXUXUXUXUXUXUXUXUXUXUXUXUXUXUXUXUXUXUXUXUXUXUXUXUXUXUXUXUXUXUXUXUXUXUXUXUXUXUXUXUXUXUXUXUXUXUXUXUXUXUXUXUXUXUXUXUXUX",
"UXUXUXUXUXUXUXUXUXUXUXUXUXUXUXUXUXUXUXUXUXUXUXUXUXUXUXUXUXUXUXUXUXUXUXUXUXUXUXUXUXUXUXUXUXUXUXUXUXUXUXUXUXUXUXUXUXUXUXUXUXUXUXUX",
"UXUXUXUXUXUXUXUXUXUXUXUXUXUXUXUXUXUXUXUXUXUXUXUXUXUXUXUXUXUXUXUXUXUXUXUXUXUXUXUXUXUXUXUXUXUXUXUXUXUXUXUXUXUXUXUXUXUXUXUXUXUXUXUX",
"UXUXUXUXUXUXUXUXUXUXUXUXUXUXUXUXUXUXUXUXUXUXUXUXUXUXUXUXUXUXUXUXUXUXUXUXUXUXUXUXUXUXUXUXUXUXUXUXUXUXUXUXUXUXUXUXUXUXUXUXUXUXUXUX"
};
