/* XPM */
static char *_6229b8b43c946e2954cd1608b32b7a0[] = {
/* columns rows colors chars-per-pixel */
"16 16 85 1 ",
"  c #002D54",
". c #033B5E",
"X c #083F61",
"o c #0D4366",
"O c #004967",
"+ c #00496A",
"@ c #1B4C6B",
"# c #2E5A74",
"$ c #275A78",
"% c #2B5A78",
"& c #296479",
"* c #476476",
"= c #41627A",
"- c #006F88",
"; c #0B738A",
": c #0A768E",
"> c #15748A",
", c #007990",
"< c #057C93",
"1 c #386782",
"2 c #387387",
"3 c #476A82",
"4 c #557C8F",
"5 c #6C7782",
"6 c #6F7B85",
"7 c #677F8F",
"8 c #098FA1",
"9 c #0D8FA2",
"0 c #318EA0",
"q c #23A4B5",
"w c #33AABA",
"e c #79848D",
"r c #7A8893",
"t c #78919F",
"y c #5F9EB0",
"u c #7998A4",
"i c #60BABB",
"p c #37BEC5",
"a c #4CB5C3",
"s c #4DBFCB",
"d c #59BFCC",
"f c #3EC0C8",
"g c #5FC1C7",
"h c #70C1CB",
"j c #74D5DA",
"k c #848F98",
"l c #828F9C",
"z c #8C959C",
"x c #839AA5",
"c c #8498A7",
"v c #8A9AA7",
"b c #899FAA",
"n c #979DA5",
"m c #8AA3B2",
"M c #8EABB7",
"N c #95A5B1",
"B c #9DB3BC",
"V c #A2A7AE",
"C c #A3A7AE",
"Z c #A3AAB1",
"A c #A8AAB0",
"S c #AAABB1",
"D c #AEB2B9",
"F c #B5B7BC",
"G c #B9B7BC",
"H c #89B6C3",
"J c #A1B5C0",
"K c #BDBBC0",
"L c #BDC4CA",
"P c #9CDEE5",
"I c #C0C3C8",
"U c #C9CACF",
"Y c #C8CDD1",
"T c #DAD6D8",
"R c #D8D9DB",
"E c #DBD8DA",
"W c #DDDADD",
"Q c #DFDCDE",
"! c #DFDDDF",
"~ c #CFDDE1",
"^ c #EBE0E0",
"/ c #ECE6E6",
"( c #FFFCFC",
") c gray100",
"_ c None",
/* pixels */
"________________",
"________________",
"________________",
"_____5ltvDe_____",
"____*&>0;2Un____",
"____4<s)d,BT6___",
"___Sb8j^dq~WC___",
"___Ku9fiph)RF___",
"___Gx-aPw;MQU___",
"___SZOy)HO#QL___",
"____cX1/e =Rk___",
"____3%o@.$LC____",
"_____rNmJYz_____",
"________________",
"________________",
"________________"
};
